name analog
datacolumns 19
datarows 47
range 0.17250000000000001 0.1955
endheader
time	ground_force_vx	ground_force_vy	ground_force_vz	ground_force_px	ground_force_py	ground_force_pz	l_ground_force_vx	l_ground_force_vy	l_ground_force_vz	l_ground_force_px	l_ground_force_py	l_ground_force_pz	ground_torque_x	ground_torque_y	ground_torque_z	l_ground_torque_x	l_ground_torque_y	l_ground_torque_z
0.17250000000000001	-0.0	-0.0	-0.0	-6.758525371551514	45.51734161376953	-400.4617919921875	14.05824089050293	-48.40792083740234	-304.8158569335937	-0.0	-0.0	-0.0	-0.0	-0.0	-0.0	78279.8203125	-25332.255859375	2591.83984375
0.17300000000000001	-0.0	-0.0	-0.0	-5.527785778045654	43.13911437988281	-392.6399230957031	14.40173625946045	-49.63374710083008	-315.0551452636719	-0.0	-0.0	-0.0	-0.0	-0.0	-0.0	80322.4921875	-25904.91015625	2638.757568359375
0.17350000000000002	-0.0	-0.0	-0.0	-5.188880920410156	40.6303596496582	-383.58441162109375	14.94156265258789	-50.481971740722656	-323.2357788085937	-0.0	-0.0	-0.0	-0.0	-0.0	-0.0	82338.4921875	-26768.5390625	2726.863525390625
0.17400000000000002	-0.0	-0.0	-0.0	-3.922344207763672	38.54454803466797	-374.9989013671875	15.539640426635742	-51.6253662109375	-331.81915283203125	-0.0	-0.0	-0.0	-0.0	-0.0	-0.0	84689.8515625	-27291.71484375	2697.835693359375
0.17450000000000002	-0.0	-0.0	-0.0	-2.3696951866149902	36.5483627319336	-365.5634765625	16.246164321899414	-52.54325485229492	-339.4379577636719	-0.0	-0.0	-0.0	-0.0	-0.0	-0.0	86554.2265625	-27866.3671875	2845.526611328125
0.17500000000000002	-0.0	-0.0	-0.0	-0.8309335708618164	35.410240173339844	-358.9317321777344	16.5609073638916	-52.99534606933594	-347.0659484863281	-0.0	-0.0	-0.0	-0.0	-0.0	-0.0	88318.5390625	-28740.470703125	2905.393310546875
0.17550000000000002	-0.0	-0.0	-0.0	0.4619243741035461	34.218475341796875	-354.9804992675781	16.632213592529297	-53.88865280151367	-352.2812194824219	-0.0	-0.0	-0.0	-0.0	-0.0	-0.0	89878.2890625	-29110.568359375	2924.755126953125
0.176	-0.0	-0.0	-0.0	1.6775593757629397	33.7498893737793	-350.7857666015625	16.767189025878906	-54.685089111328125	-359.0425109863281	-0.0	-0.0	-0.0	-0.0	-0.0	-0.0	91708.40625	-29638.34765625	2776.344970703125
0.1765	-0.0	-0.0	-0.0	1.3168495893478394	33.77233123779297	-346.208740234375	16.389808654785156	-55.351749420166016	-366.7037353515625	-0.0	-0.0	-0.0	-0.0	-0.0	-0.0	93783.890625	-30139.65625	2538.611328125
0.177	-0.0	-0.0	-0.0	1.2507789134979248	33.36326217651367	-342.2386169433594	15.854010581970217	-55.939231872558594	-375.3380126953125	-0.0	-0.0	-0.0	-0.0	-0.0	-0.0	95720.5703125	-30942.66796875	2468.706298828125
0.1775	-0.0	-0.0	-0.0	0.8621463775634766	32.92655563354492	-337.2518920898437	15.85630226135254	-56.07152938842773	-383.6851501464844	-0.0	-0.0	-0.0	-0.0	-0.0	-0.0	98071.7890625	-31564.447265625	2365.125
0.178	-0.0	-0.0	-0.0	0.1799173653125763	32.649749755859375	-330.9865417480469	15.21265983581543	-55.865333557128906	-393.0291137695313	-0.0	-0.0	-0.0	-0.0	-0.0	-0.0	100306.078125	-32314.671875	2097.56005859375
0.1785	-0.0	-0.0	-0.0	-0.3709683418273926	32.55229949951172	-329.3054504394531	14.460023880004885	-55.56988525390625	-400.35931396484375	-0.0	-0.0	-0.0	-0.0	-0.0	-0.0	102548.71875	-32897.48046875	1704.501220703125
0.179	-0.0	-0.0	-0.0	-0.3546155095100403	31.937652587890625	-327.27862548828125	13.5736665725708	-54.612548828125	-406.996826171875	-0.0	-0.0	-0.0	-0.0	-0.0	-0.0	104361.375	-33506.85546875	1212.0076904296875
0.1795	-0.0	-0.0	-0.0	0.5784696340560913	31.612377166748047	-327.2231750488281	12.146656036376951	-54.02320098876953	-412.78521728515625	-0.0	-0.0	-0.0	-0.0	-0.0	-0.0	105867.1328125	-33965.91796875	694.63330078125
0.18	-0.0	-0.0	-0.0	0.7141091823577881	31.315284729003903	-328.74658203125	11.280635833740234	-53.34626770019531	-416.2490539550781	-0.0	-0.0	-0.0	-0.0	-0.0	-0.0	107179.4453125	-33941.0859375	251.4425811767578
0.1805	-0.0	-0.0	-0.0	0.9370037317276	31.79710578918457	-327.8978881835937	10.48191261291504	-52.91179656982422	-419.9722900390625	-0.0	-0.0	-0.0	-0.0	-0.0	-0.0	108208.640625	-34159.15625	-102.5034408569336
0.181	-0.0	-0.0	-0.0	1.3369749784469604	31.3739013671875	-328.3422241210937	9.462214469909668	-52.63972473144531	-425.0341796875	-0.0	-0.0	-0.0	-0.0	-0.0	-0.0	109786.78125	-34621.19140625	-530.6156005859375
0.1815	-0.0	-0.0	-0.0	1.6133912801742554	31.21826934814453	-325.336669921875	8.44983959197998	-53.40514373779297	-432.0173645019531	-0.0	-0.0	-0.0	-0.0	-0.0	-0.0	111511.9453125	-34937.1875	-788.6752319335938
0.182	-0.0	-0.0	-0.0	1.6503362655639648	30.779733657836918	-323.6302490234375	7.73255729675293	-53.92022705078125	-438.7095336914063	-0.0	-0.0	-0.0	-0.0	-0.0	-0.0	113222.921875	-35586.10546875	-903.0231323242188
0.1825	-0.0	-0.0	-0.0	1.9995625019073489	30.720613479614254	-321.39337158203125	7.192617416381836	-54.678707122802734	-443.828857421875	-0.0	-0.0	-0.0	-0.0	-0.0	-0.0	114913.0625	-35862.04296875	-1061.7349853515625
0.183	-0.0	-0.0	-0.0	2.467941999435425	30.275056838989254	-321.1578674316406	6.564598083496094	-54.93659973144531	-448.54010009765625	-0.0	-0.0	-0.0	-0.0	-0.0	-0.0	116180.8359375	-36034.94921875	-1433.330078125
0.1835	-0.0	-0.0	-0.0	3.099918842315674	29.985164642333984	-323.0692443847656	6.165048122406006	-55.06183624267578	-452.7609252929688	-0.0	-0.0	-0.0	-0.0	-0.0	-0.0	117257.3046875	-36536.828125	-1488.196044921875
0.184	-0.0	-0.0	-0.0	3.449828863143921	29.874740600585938	-322.69171142578125	5.8558759689331055	-55.305152893066406	-455.7008056640625	-0.0	-0.0	-0.0	-0.0	-0.0	-0.0	117976.890625	-36712.98046875	-1582.5391845703125
0.1845	-0.0	-0.0	-0.0	3.3085474967956543	29.472925186157227	-323.8941650390625	5.676938056945801	-54.95037460327149	-458.7266540527344	-0.0	-0.0	-0.0	-0.0	-0.0	-0.0	118629.9375	-37027.1953125	-1706.16162109375
0.185	-0.0	-0.0	-0.0	3.895872831344605	29.504243850708008	-324.5723876953125	5.469681262969971	-54.258548736572266	-459.0196228027344	-0.0	-0.0	-0.0	-0.0	-0.0	-0.0	118966.171875	-37023.9453125	-1789.7340087890625
0.1855	-0.0	-0.0	-0.0	3.3599767684936523	29.38885498046875	-323.6884155273437	5.464790344238281	-54.067020416259766	-460.3522338867188	-0.0	-0.0	-0.0	-0.0	-0.0	-0.0	119303.03125	-37271.5	-1787.293701171875
0.186	-0.0	-0.0	-0.0	3.3007941246032715	29.128881454467773	-321.6367492675781	5.191192626953125	-53.66987609863281	-460.5817565917969	-0.0	-0.0	-0.0	-0.0	-0.0	-0.0	119661.3203125	-37417.4296875	-1894.1439208984373
0.1865	-0.0	-0.0	-0.0	4.467743873596191	29.25187110900879	-320.627685546875	4.986738204956055	-53.33911895751953	-461.0783386230469	-0.0	-0.0	-0.0	-0.0	-0.0	-0.0	120008.5	-37588.87890625	-2066.965087890625
0.187	-0.0	-0.0	-0.0	4.695596694946289	29.29306411743164	-323.62164306640625	4.408468723297119	-52.493770599365234	-461.4645080566406	-0.0	-0.0	-0.0	-0.0	-0.0	-0.0	120079.84375	-37506.6796875	-2362.709228515625
0.1875	-0.0	-0.0	-0.0	5.429130554199219	29.017791748046875	-325.48809814453125	3.686124324798584	-51.76784133911133	-462.2261962890625	-0.0	-0.0	-0.0	-0.0	-0.0	-0.0	120327.984375	-37753.4609375	-2582.001220703125
0.188	-0.0	-0.0	-0.0	5.678390502929688	29.114490509033203	-326.3464050292969	3.120490550994873	-50.891056060791016	-462.6393737792969	-0.0	-0.0	-0.0	-0.0	-0.0	-0.0	120433.2265625	-37830.95703125	-2873.643310546875
0.1885	-0.0	-0.0	-0.0	6.069165229797363	28.76856231689453	-327.18572998046875	2.7746527194976807	-49.93996047973633	-462.6775512695313	-0.0	-0.0	-0.0	-0.0	-0.0	-0.0	120633.171875	-37869.96875	-3180.1640625
0.189	-0.0	-0.0	-0.0	5.948191642761231	28.64221572875977	-327.9897155761719	2.4552149772644043	-48.841896057128906	-461.32135009765625	-0.0	-0.0	-0.0	-0.0	-0.0	-0.0	120954.859375	-38046.671875	-3304.254150390625
0.1895	-0.0	-0.0	-0.0	6.446809768676758	28.38673210144043	-328.1689147949219	2.4217824935913086	-47.93590545654297	-462.5528564453125	-0.0	-0.0	-0.0	-0.0	-0.0	-0.0	121398.921875	-38215.89453125	-3451.6982421875
0.19	-0.0	-0.0	-0.0	6.708010196685791	28.22414970397949	-330.2176513671875	2.794366836547852	-47.16378021240234	-463.02545166015625	-0.0	-0.0	-0.0	-0.0	-0.0	-0.0	121425.1640625	-38247.25	-3439.95849609375
0.1905	-0.0	-0.0	-0.0	7.769990921020508	28.01641845703125	-334.13671875	3.0320606231689453	-46.74184036254883	-462.7131958007813	-0.0	-0.0	-0.0	-0.0	-0.0	-0.0	121408.0546875	-38362.51171875	-3511.665771484375
0.191	-0.0	-0.0	-0.0	8.392037391662598	27.544416427612305	-333.6414489746094	3.260422468185425	-46.16389846801758	-462.7249755859375	-0.0	-0.0	-0.0	-0.0	-0.0	-0.0	121363.8125	-38370.203125	-3698.370849609375
0.1915	-0.0	-0.0	-0.0	9.442434310913086	27.754493713378903	-336.1172790527344	3.398534059524536	-45.75504302978516	-462.32171630859375	-0.0	-0.0	-0.0	-0.0	-0.0	-0.0	121345.75	-38180.22265625	-3665.286865234375
0.192	-0.0	-0.0	-0.0	10.551979064941406	27.45576858520508	-337.9931030273437	3.93160629272461	-45.12190246582031	-461.445068359375	-0.0	-0.0	-0.0	-0.0	-0.0	-0.0	121502.4296875	-38262.68359375	-3730.896484375
0.1925	-0.0	-0.0	-0.0	11.99881362915039	27.486215591430664	-340.9501037597656	4.667347431182861	-44.63957214355469	-461.22943115234375	-0.0	-0.0	-0.0	-0.0	-0.0	-0.0	121287.3671875	-38119.47265625	-3658.6728515625
0.193	-0.0	-0.0	-0.0	13.170775413513184	27.209199905395508	-340.1933898925781	5.326779842376709	-43.80755615234375	-459.72174072265625	-0.0	-0.0	-0.0	-0.0	-0.0	-0.0	120854.015625	-37926.890625	-3527.931884765625
0.1935	-0.0	-0.0	-0.0	14.051630973815918	26.33194732666016	-341.8455505371094	5.864111423492432	-42.94853973388672	-458.17822265625	-0.0	-0.0	-0.0	-0.0	-0.0	-0.0	120610.1796875	-37734.88671875	-3509.458984375
0.194	-0.0	-0.0	-0.0	14.956914901733398	26.3521728515625	-341.5946655273437	6.389402389526367	-42.42681121826172	-455.05511474609375	-0.0	-0.0	-0.0	-0.0	-0.0	-0.0	119888.5859375	-37526.78125	-3576.052978515625
0.1945	-0.0	-0.0	-0.0	15.615507125854492	26.415355682373047	-344.9602355957031	6.757175922393799	-41.5146713256836	-452.5784301757813	-0.0	-0.0	-0.0	-0.0	-0.0	-0.0	119202.9609375	-37125.11328125	-3524.440673828125
0.195	-0.0	-0.0	-0.0	16.625965118408203	26.157203674316406	-347.0459899902344	6.774773597717285	-40.83247756958008	-449.615966796875	-0.0	-0.0	-0.0	-0.0	-0.0	-0.0	118416.90625	-36505.5859375	-3676.135009765625
0.1955	-0.0	-0.0	-0.0	16.576519012451172	25.733015060424805	-348.7882080078125	7.316173553466797	-40.39574432373047	-446.31781005859375	-0.0	-0.0	-0.0	-0.0	-0.0	-0.0	117592.4921875	-36272.2578125	-3632.9931640625
